<?xml version="1.0" standalone="no"?>
<!DOCTYPE svg PUBLIC "-//W3C//DTD SVG 20010904//EN"
 "http://www.w3.org/TR/2001/REC-SVG-20010904/DTD/svg10.dtd">
<svg version="1.0" xmlns="http://www.w3.org/2000/svg"
 width="192.000000pt" height="192.000000pt" viewBox="0 0 192.000000 192.000000"
 preserveAspectRatio="xMidYMid meet">
<metadata>
Created by potrace 1.15, written by Peter Selinger 2001-2017
</metadata>
<g transform="translate(0.000000,192.000000) scale(0.100000,-0.100000)"
fill="#000000" stroke="none">
<path d="M635 1844 c-65 -34 -106 -92 -124 -172 -14 -65 -14 -149 -1 -157 6
-3 10 -19 10 -34 0 -24 3 -28 23 -24 12 2 32 20 45 39 28 43 55 47 46 7 -7
-29 -41 -64 -60 -60 -24 5 -130 -106 -155 -162 -20 -45 -19 -78 2 -66 11 7 79
-51 79 -67 0 -4 -11 -8 -24 -8 -27 0 -56 24 -56 46 0 8 -4 14 -10 14 -5 0 -10
-11 -10 -25 0 -30 41 -72 73 -77 31 -4 36 -78 9 -128 -42 -76 -74 -341 -53
-440 6 -25 15 -71 21 -102 6 -32 27 -93 46 -137 50 -117 50 -116 -52 -129
-104 -14 -154 -40 -147 -76 7 -33 65 -51 233 -70 148 -17 619 -22 648 -6 9 5
54 13 100 19 164 21 205 59 310 291 76 166 64 449 -24 609 -22 40 -23 46 -9
61 25 28 17 49 -30 82 -51 36 -56 53 -21 69 23 11 86 88 86 106 0 4 -13 21
-30 38 -16 16 -43 45 -59 63 -22 24 -38 32 -64 32 -32 0 -54 19 -48 43 0 4 -6
21 -14 37 -8 16 -15 39 -15 52 0 13 -9 36 -20 53 -12 18 -17 38 -14 52 4 13
-3 40 -15 65 -34 70 -157 139 -219 123 -25 -6 -24 -8 28 -29 37 -15 57 -19 62
-12 4 6 7 2 7 -9 0 -11 3 -35 7 -52 6 -31 4 -33 -20 -33 -17 0 -42 14 -69 38
-23 21 -55 44 -72 51 l-30 13 23 12 c12 7 19 15 16 19 -10 10 -64 9 -64 -2 0
-16 -54 -19 -82 -5 -32 17 -51 18 -46 3 5 -15 76 -39 117 -39 32 0 101 -40
101 -59 0 -4 -19 -13 -42 -20 -24 -7 -57 -17 -75 -22 -21 -7 -46 -7 -70 0 -22
5 -68 6 -108 2 l-70 -8 57 -2 c88 -2 102 -11 71 -48 -14 -15 -35 -21 -93 -26
-63 -4 -85 -11 -135 -42 l-60 -36 -19 23 c-37 46 2 158 56 158 10 0 18 5 18
10 0 6 -13 10 -30 10 -20 0 -30 5 -30 15 0 25 53 74 94 87 24 8 42 21 47 36
10 27 -3 29 -46 6z m595 -219 c16 -8 40 -30 53 -47 38 -52 40 -58 19 -58 -13
0 -22 9 -26 25 -4 14 -11 23 -16 20 -13 -8 -13 -111 0 -136 9 -16 7 -19 -8
-19 -22 0 -60 -26 -51 -35 8 -8 129 27 129 38 0 4 -12 20 -26 34 -22 22 -24
28 -12 40 13 12 18 10 41 -13 17 -17 27 -38 27 -55 0 -16 4 -29 10 -29 5 0 40
-22 78 -50 38 -27 73 -50 78 -50 5 0 15 -9 22 -21 14 -23 7 -38 -40 -89 -35
-38 -117 -73 -139 -59 -8 5 -36 9 -62 9 -32 0 -46 4 -41 11 3 6 17 8 30 5 26
-7 64 12 64 31 0 9 -16 13 -49 13 -41 0 -53 -4 -69 -25 -15 -19 -25 -23 -45
-17 -30 8 -31 9 -22 75 4 27 4 51 1 54 -3 3 -20 -24 -37 -61 l-31 -66 -133 0
-133 0 -21 36 c-29 50 -28 124 5 204 17 44 25 78 23 111 -3 55 19 87 72 110
39 15 48 5 21 -24 -20 -21 -30 -57 -16 -57 3 0 29 20 56 45 38 34 58 45 83 45
19 0 37 5 40 10 9 15 92 12 125 -5z m-422 -72 c24 -15 28 -23 24 -52 -2 -19
-13 -54 -24 -79 -17 -35 -23 -41 -30 -28 -5 9 -5 23 2 35 5 11 10 28 10 38 -1
17 -2 17 -13 1 -10 -12 -23 -15 -60 -11 -65 8 -72 33 -22 79 42 38 71 42 113
17z m-171 -135 c-15 -59 -18 -127 -8 -145 9 -18 7 -22 -12 -27 -48 -12 -94 49
-82 111 6 36 56 83 87 83 16 0 19 -5 15 -22z"/>
<path d="M1035 1548 c-44 -26 -95 -100 -95 -139 0 -39 47 -71 103 -69 62 3 65
1 33 -15 -34 -18 -72 -19 -82 -4 -5 8 -10 6 -16 -5 -16 -29 7 -46 45 -33 109
36 136 59 144 125 13 112 -55 184 -132 140z m85 -43 c7 -8 15 -36 18 -61 4
-41 2 -49 -19 -65 -24 -18 -82 -25 -114 -13 -14 6 -13 8 5 21 24 17 26 46 5
67 -21 20 -19 24 18 46 38 24 70 26 87 5z"/>
</g>
</svg>
